<svg width="400" height="400" viewBox="0 0 400 400" fill="none" xmlns="http://www.w3.org/2000/svg">
<path d="M40.1974 293.894L40.3353 188.484L42.631 187.15C43.8937 186.417 47.4822 184.481 50.6054 182.848C53.7286 181.216 64.9235 175.251 75.483 169.594C86.0425 163.937 96.0749 158.611 97.7772 157.757L100.872 156.206L100.887 113.953C100.898 80.8079 101.047 71.5862 101.577 71.1706C101.949 70.8793 104.687 69.3572 107.662 67.7881C110.636 66.219 113.8 64.514 114.692 63.9992C115.585 63.4843 118.505 61.903 121.182 60.4852C126.951 57.4295 130.47 55.5407 143.085 48.7286C148.291 45.9177 155.452 42.0783 159 40.1967C162.547 38.3151 167.293 35.7251 169.546 34.4412L173.641 32.1069L173.778 173.849C173.886 286.865 174.051 315.538 174.589 315.328C174.96 315.183 182.321 311.116 190.947 306.292C199.574 301.467 211.07 295.05 216.495 292.031L226.359 286.543L226.5 145.983L226.641 5.4227L231.238 3.05998L235.835 0.697266L236.106 94.7765L236.376 188.856L241.784 185.877C244.759 184.239 248.774 182.027 250.708 180.961C252.641 179.896 268.46 171.122 285.861 161.465C303.262 151.807 318.499 143.35 319.722 142.672C341.33 130.688 348.982 126.367 349.536 125.838C350.042 125.355 350.24 119.888 350.347 103.474L350.489 81.7495L355.086 79.378L359.683 77.0065L359.823 104.599C359.904 120.532 359.754 132.582 359.468 133.116C359.197 133.624 357.065 135.072 354.731 136.334C352.398 137.596 349.028 139.438 347.244 140.429C343.987 142.235 334.238 147.607 319.121 155.922C310.415 160.712 308.331 161.862 300.626 166.128C297.889 167.644 293.752 169.905 291.432 171.154C289.111 172.402 282.954 175.776 277.749 178.651C272.543 181.526 266.094 185.048 263.417 186.476C260.74 187.905 257.82 189.497 256.927 190.014C255.362 190.922 253.495 191.96 247.733 195.129C246.246 195.947 243.021 197.728 240.568 199.087L236.106 201.558V248.175C236.106 284.825 235.961 294.907 235.43 295.326C235.058 295.62 232.077 297.269 228.805 298.991C225.533 300.713 221.761 302.722 220.422 303.456C215.192 306.322 211.065 308.546 199.871 314.529C193.476 317.946 187.027 321.411 185.539 322.227C182.424 323.937 178.176 326.24 172.019 329.558C169.639 330.841 166.962 332.333 166.07 332.875C165.178 333.417 164.265 333.861 164.042 333.862C163.819 333.863 163.636 312.958 163.636 287.406V240.947L155.659 245.273C151.272 247.653 146.222 250.397 144.437 251.372C142.653 252.346 138.759 254.435 135.784 256.015C132.81 257.595 126.487 261.033 121.734 263.656C116.981 266.279 112.904 268.425 112.675 268.425C112.446 268.425 112.259 288.964 112.259 314.067V359.709L107.256 362.955L102.253 366.201L102.115 320.24L101.977 274.28L97.5183 276.693C95.066 278.021 91.8427 279.773 90.3555 280.587C85.0681 283.482 81.0971 285.625 76.2942 288.175C73.6172 289.597 71.1835 290.934 70.886 291.146C70.5886 291.359 67.7661 292.901 64.6139 294.573C61.4617 296.244 56.9594 298.675 54.6088 299.975L50.335 302.338L50.1967 348.051L50.0585 393.764L45.2597 396.534C42.6203 398.057 40.3706 399.303 40.2602 399.303C40.1498 399.303 40.1215 351.869 40.1974 293.894ZM68.9932 280.589C87.1623 270.665 106.864 259.905 112.529 256.812C114.314 255.838 125.144 249.93 136.595 243.683C163.151 229.198 162.757 229.415 163.197 229.014C163.747 228.512 163.988 134.302 163.439 134.303C163.182 134.303 159.897 135.973 156.138 138.015C152.38 140.057 147.114 142.887 144.437 144.304C136.616 148.446 131.649 151.1 128.754 152.686C127.266 153.5 123.372 155.573 120.1 157.291C116.828 159.01 112.935 161.075 111.447 161.881C109.96 162.687 106.31 164.633 103.335 166.206C100.361 167.779 96.4667 169.854 94.682 170.817C89.1641 173.794 84.6358 176.217 78.7279 179.354C72.6975 182.557 67.3443 185.402 56.6635 191.083L50.0646 194.593V242.933C50.0646 281.532 50.2008 291.163 50.7406 290.731C51.1124 290.433 59.3261 285.87 68.9932 280.589ZM124.968 143.093C128.835 141.019 134.31 138.084 137.136 136.572C139.962 135.059 147.02 131.273 152.82 128.157L163.366 122.491L163.505 86.2133C163.581 66.2604 163.508 49.9352 163.341 49.9352C163.174 49.9352 160.678 51.3109 157.794 52.9923C150.065 57.4977 145.173 60.2172 130.917 67.9338C126.752 70.1878 121.763 72.9105 119.83 73.984C117.897 75.0576 115.28 76.4619 114.016 77.1046L111.718 78.2732V100.522C111.718 112.758 111.556 129.042 111.359 136.707L111.001 150.643L114.469 148.754C116.376 147.714 121.101 145.167 124.968 143.093Z" fill="white"/>
</svg>
