<svg width="40" height="40" viewBox="0 0 40 40" fill="none" xmlns="http://www.w3.org/2000/svg">
<path d="M4.01988 29.389L4.03367 18.848L4.26325 18.7146C4.38952 18.6413 4.74836 18.4477 5.06069 18.2844C5.37301 18.1212 6.4925 17.5248 7.54845 16.9591C8.60439 16.3934 9.60763 15.8607 9.77787 15.7753L10.0874 15.6202L10.0888 11.3949C10.09 8.0804 10.1049 7.15822 10.1579 7.11667C10.1951 7.08754 10.4689 6.93532 10.7663 6.77842C11.0638 6.62151 11.3801 6.45101 11.4694 6.39953C11.5586 6.34804 11.8506 6.18991 12.1184 6.04813C12.6953 5.74256 13.0472 5.55368 14.3087 4.87247C14.8292 4.59138 15.5454 4.20744 15.9001 4.01928C16.2549 3.83112 16.7295 3.57212 16.9547 3.44373L17.3643 3.2103L17.3779 17.3845C17.3888 28.6861 17.4052 31.5534 17.459 31.5324C17.4962 31.5179 18.2323 31.1113 19.0949 30.6288C19.9575 30.1463 21.1071 29.5046 21.6497 29.2027L22.6361 28.6539L22.6502 14.5979L22.6643 0.541879L23.124 0.305608L23.5837 0.0693359L23.6107 9.47726L23.6378 18.8852L24.1786 18.5873C24.476 18.4235 24.8776 18.2023 25.0709 18.0958C25.2643 17.9892 26.8462 17.1118 28.5862 16.1461C30.3263 15.1803 31.8501 14.3346 31.9723 14.2668C34.1331 13.0684 34.8984 12.6363 34.9538 12.5834C35.0044 12.5351 35.0242 11.9884 35.0349 10.347L35.049 8.17456L35.5087 7.93741L35.9684 7.70026L35.9824 10.4595C35.9905 12.0529 35.9755 13.2579 35.947 13.3112C35.9198 13.362 35.7066 13.5068 35.4733 13.633C35.2399 13.7592 34.903 13.9435 34.7245 14.0425C34.3989 14.2231 33.4239 14.7603 31.9123 15.5919C31.0416 16.0708 30.8333 16.1858 30.0627 16.6124C29.7891 16.764 29.3753 16.9901 29.1433 17.115C28.9113 17.2399 28.2956 17.5773 27.775 17.8648C27.2545 18.1523 26.6096 18.5044 26.3419 18.6472C26.0741 18.7901 25.7821 18.9493 25.6929 19.001C25.5364 19.0918 25.3496 19.1957 24.7735 19.5125C24.6248 19.5943 24.3023 19.7724 24.0569 19.9083L23.6107 20.1554V24.8171C23.6107 28.4821 23.5963 29.4903 23.5431 29.5323C23.5059 29.5616 23.2078 29.7265 22.8806 29.8987C22.5534 30.0709 22.1762 30.2718 22.0424 30.3452C21.5194 30.6319 21.1066 30.8542 19.9872 31.4525C19.3477 31.7943 18.7028 32.1407 18.5541 32.2223C18.2425 32.3933 17.8178 32.6236 17.202 32.9554C16.9641 33.0837 16.6964 33.233 16.6071 33.2871C16.5179 33.3413 16.4266 33.3857 16.4043 33.3858C16.382 33.386 16.3638 31.2954 16.3638 28.7402V24.0943L15.5661 24.5269C15.1273 24.7649 14.6223 25.0393 14.4439 25.1368C14.2654 25.2342 13.876 25.4432 13.5786 25.6011C13.2811 25.7591 12.6488 26.1029 12.1735 26.3652C11.6982 26.6275 11.2906 26.8422 11.2677 26.8422C11.2448 26.8422 11.226 28.896 11.226 31.4063V35.9705L10.7257 36.2951L10.2255 36.6197L10.2117 32.0236L10.1978 27.4276L9.75197 27.6689C9.50674 27.8017 9.18442 27.9769 9.03569 28.0583C8.50696 28.3478 8.10985 28.5621 7.62957 28.8171C7.36186 28.9593 7.1185 29.093 7.08875 29.1143C7.05901 29.1355 6.77676 29.2897 6.46154 29.4569C6.14631 29.624 5.69608 29.8671 5.46103 29.9971L5.03364 30.2334L5.01982 34.8047L5.006 39.376L4.52612 39.653C4.26218 39.8053 4.0372 39.9299 4.02616 39.9299C4.01512 39.9299 4.0123 35.1865 4.01988 29.389ZM6.89947 28.0585C8.71638 27.0661 10.6865 25.9901 11.253 25.6808C11.4315 25.5834 12.5145 24.9926 13.6597 24.3679C16.3152 22.9194 16.2758 22.9411 16.3198 22.901C16.3749 22.8508 16.399 13.4299 16.3441 13.4299C16.3183 13.4299 15.9898 13.5969 15.614 13.8011C15.2381 14.0053 14.7116 14.2883 14.4439 14.4301C13.6618 14.8442 13.165 15.1096 12.8755 15.2682C12.7268 15.3497 12.3374 15.5569 12.0102 15.7288C11.683 15.9006 11.2936 16.1071 11.1449 16.1877C10.9962 16.2683 10.6311 16.4629 10.3337 16.6202C10.0362 16.7775 9.64682 16.985 9.46835 17.0813C8.91656 17.379 8.46372 17.6214 7.87294 17.9351C7.2699 18.2553 6.73458 18.5398 5.66649 19.1079L5.0066 19.4589V24.2929C5.0066 28.1528 5.02022 29.1159 5.07421 29.0727C5.11139 29.0429 5.93275 28.5866 6.89947 28.0585ZM12.4969 14.3089C12.8836 14.1015 13.4312 13.808 13.7138 13.6568C13.9963 13.5055 14.7021 13.1269 15.2821 12.8153L16.3367 12.2488L16.3506 8.62094C16.3583 6.62564 16.3509 4.99313 16.3342 4.99313C16.3176 4.99313 16.068 5.1307 15.7795 5.29884C15.0066 5.74938 14.5174 6.02133 13.0918 6.79299C12.6754 7.01839 12.1765 7.29066 11.9831 7.39801C11.7898 7.50537 11.5282 7.6458 11.4018 7.71007L11.1719 7.82693V10.0518C11.1719 11.2754 11.1558 12.9038 11.1361 13.6703L11.1002 15.0639L11.447 14.875C11.6378 14.771 12.1102 14.5163 12.4969 14.3089Z" fill="white"/>
</svg>
